<?xml version="1.0" encoding="utf-8"?>
<!-- Generator: Adobe Illustrator 16.0.4, SVG Export Plug-In . SVG Version: 6.00 Build 0)  -->
<!DOCTYPE svg PUBLIC "-//W3C//DTD SVG 1.1//EN" "http://www.w3.org/Graphics/SVG/1.1/DTD/svg11.dtd">
<svg version="1.1" id="Camada_1" xmlns="http://www.w3.org/2000/svg" xmlns:xlink="http://www.w3.org/1999/xlink" x="0px" y="0px"
	 width="595.275px" height="841.891px" viewBox="0 0 595.275 841.891" enable-background="new 0 0 595.275 841.891"
	 xml:space="preserve">
<g>
	<defs>
		<rect id="SVGID_1_" width="595.276" height="841.891"/>
	</defs>
	<clipPath id="SVGID_2_">
		<use xlink:href="#SVGID_1_"  overflow="visible"/>
	</clipPath>
	<rect clip-path="url(#SVGID_2_)" fill="#000100" width="595.275" height="841.891"/>
	<polygon clip-path="url(#SVGID_2_)" fill="#FFFFFF" points="281.954,378.97 370.168,378.97 370.168,335.082 238.504,335.082 
		238.504,466.746 370.168,466.746 370.168,422.857 281.954,422.857 	"/>
	<path clip-path="url(#SVGID_2_)" fill="#FFFFFF" d="M392.551,466.746h131.664V335.081H392.551V466.746z M479.449,422.857H436
		V378.97h43.449V422.857z"/>
	<polygon clip-path="url(#SVGID_2_)" fill="#FFFFFF" points="151.854,487.812 107.966,487.812 194.808,314.016 238.695,314.016 	"/>
	<polygon clip-path="url(#SVGID_2_)" fill="#010302" points="111.606,522.389 109.267,521.182 193.24,358.522 342.822,358.522 
		342.822,304.54 345.456,304.54 345.456,361.155 194.845,361.155 	"/>
	<polygon clip-path="url(#SVGID_2_)" fill="#010302" points="281.316,499.402 257.899,499.402 257.899,446.736 502.794,446.736 
		502.794,358.522 551.51,358.522 551.51,361.155 505.427,361.155 505.427,449.369 260.533,449.369 260.533,496.77 281.316,496.77 	
		"/>
	<g clip-path="url(#SVGID_2_)">
		<defs>
			<rect id="SVGID_3_" width="595.276" height="841.891"/>
		</defs>
		<clipPath id="SVGID_4_">
			<use xlink:href="#SVGID_3_"  overflow="visible"/>
		</clipPath>
		<path clip-path="url(#SVGID_4_)" fill="#010302" d="M344.14,305.857c-4.538,0-8.229-3.692-8.229-8.229
			c0-4.538,3.691-8.229,8.229-8.229c4.537,0,8.229,3.691,8.229,8.229C352.368,302.165,348.677,305.857,344.14,305.857
			 M344.14,292.032c-3.086,0-5.596,2.51-5.596,5.596c0,3.085,2.51,5.595,5.596,5.595c3.085,0,5.596-2.51,5.596-5.595
			C349.735,294.542,347.225,292.032,344.14,292.032"/>
		<path clip-path="url(#SVGID_4_)" fill="#010302" d="M565.334,359.839c0-3.817-3.095-6.913-6.912-6.913
			c-3.816,0-6.912,3.096-6.912,6.913s3.096,6.912,6.912,6.912C562.239,366.751,565.334,363.656,565.334,359.839"/>
		<path clip-path="url(#SVGID_4_)" fill="#010302" d="M117.349,521.785c0-3.818-3.095-6.912-6.912-6.912
			c-3.818,0-6.913,3.094-6.913,6.912s3.095,6.912,6.913,6.912C114.253,528.697,117.349,525.604,117.349,521.785"/>
		<path clip-path="url(#SVGID_4_)" fill="#010302" d="M287.892,506.314c-4.538,0-8.229-3.691-8.229-8.229s3.691-8.229,8.229-8.229
			s8.229,3.691,8.229,8.229S292.43,506.314,287.892,506.314 M287.892,492.49c-3.085,0-5.596,2.51-5.596,5.596
			s2.511,5.594,5.596,5.594s5.596-2.508,5.596-5.594S290.977,492.49,287.892,492.49"/>
		<defs>
			<filter id="Adobe_OpacityMaskFilter" filterUnits="userSpaceOnUse" x="103.523" y="289.399" width="461.811" height="239.298">
				<feFlood  style="flood-color:white;flood-opacity:1" result="back"/>
				<feBlend  in="SourceGraphic" in2="back" mode="normal"/>
			</filter>
		</defs>
		<mask maskUnits="userSpaceOnUse" x="103.523" y="289.399" width="461.811" height="239.298" id="SVGID_5_">
			<g filter="url(#Adobe_OpacityMaskFilter)">
				<g enable-background="new    ">
					<polygon clip-path="url(#SVGID_4_)" fill="#010302" points="281.954,378.97 370.168,378.97 370.168,335.082 238.504,335.082 
						238.504,466.746 370.168,466.746 370.168,422.857 281.954,422.857 					"/>
					<path clip-path="url(#SVGID_4_)" fill="#010302" d="M392.551,466.746h131.664V335.081H392.551V466.746z M479.449,422.857H436
						V378.97h43.449V422.857z"/>
					<polygon clip-path="url(#SVGID_4_)" fill="#010302" points="151.854,487.812 107.966,487.812 194.808,314.016 238.695,314.016 
											"/>
				</g>
			</g>
		</mask>
		<g clip-path="url(#SVGID_4_)" mask="url(#SVGID_5_)">
			<g>
				<defs>
					<rect id="SVGID_6_" x="103.524" y="289.399" width="461.81" height="239.298"/>
				</defs>
				<clipPath id="SVGID_7_">
					<use xlink:href="#SVGID_6_"  overflow="visible"/>
				</clipPath>
				<polygon clip-path="url(#SVGID_7_)" fill="#FFFFFF" points="111.606,522.389 109.267,521.182 193.24,358.522 342.822,358.522 
					342.822,304.54 345.456,304.54 345.456,361.155 194.845,361.155 				"/>
				<polygon clip-path="url(#SVGID_7_)" fill="#FFFFFF" points="281.316,499.402 257.899,499.402 257.899,446.736 502.794,446.736 
					502.794,358.522 551.51,358.522 551.51,361.155 505.427,361.155 505.427,449.369 260.533,449.369 260.533,496.77 
					281.316,496.77 				"/>
				<path clip-path="url(#SVGID_7_)" fill="#FFFFFF" d="M344.14,305.857c-4.538,0-8.229-3.692-8.229-8.229
					c0-4.538,3.691-8.229,8.229-8.229c4.537,0,8.229,3.691,8.229,8.229C352.368,302.165,348.677,305.857,344.14,305.857
					 M344.14,292.032c-3.086,0-5.596,2.51-5.596,5.596c0,3.085,2.51,5.595,5.596,5.595c3.085,0,5.596-2.51,5.596-5.595
					C349.735,294.542,347.225,292.032,344.14,292.032"/>
				<path clip-path="url(#SVGID_7_)" fill="#FFFFFF" d="M565.334,359.839c0-3.817-3.095-6.913-6.912-6.913
					c-3.816,0-6.912,3.096-6.912,6.913s3.096,6.912,6.912,6.912C562.239,366.751,565.334,363.656,565.334,359.839"/>
				<path clip-path="url(#SVGID_7_)" fill="#FFFFFF" d="M117.349,521.785c0-3.818-3.095-6.912-6.912-6.912
					c-3.818,0-6.913,3.094-6.913,6.912s3.095,6.912,6.913,6.912C114.253,528.697,117.349,525.604,117.349,521.785"/>
				<path clip-path="url(#SVGID_7_)" fill="#FFFFFF" d="M287.892,506.314c-4.538,0-8.229-3.691-8.229-8.229s3.691-8.229,8.229-8.229
					s8.229,3.691,8.229,8.229S292.43,506.314,287.892,506.314 M287.892,492.49c-3.085,0-5.596,2.51-5.596,5.596
					s2.511,5.594,5.596,5.594s5.596-2.508,5.596-5.594S290.977,492.49,287.892,492.49"/>
			</g>
		</g>
		<rect x="51.073" y="422.857" clip-path="url(#SVGID_4_)" fill="#FFFFFF" width="43.449" height="43.889"/>
	</g>
</g>
</svg>
